<svg width="65" height="64" viewBox="0 0 65 64" fill="none" xmlns="http://www.w3.org/2000/svg">
<rect x="0.666016" width="64" height="64" rx="12" fill="#E6F1F1"/>
<g clip-path="url(#clip0_177_18083)">
<path d="M32.6667 48.6666C23.4617 48.6666 16 41.205 16 32C16 22.795 23.4617 15.3333 32.6667 15.3333C41.8717 15.3333 49.3333 22.795 49.3333 32C49.3333 41.205 41.8717 48.6666 32.6667 48.6666ZM32.6667 29.6433L27.9533 24.9283L25.595 27.2866L30.31 32L25.595 36.7133L27.9533 39.0716L32.6667 34.3566L37.38 39.0716L39.7383 36.7133L35.0233 32L39.7383 27.2866L37.38 24.9283L32.6667 29.6433Z" fill="#409093"/>
</g>
<defs>
<clipPath id="clip0_177_18083">
<rect width="40" height="40" fill="white" transform="translate(12.666 12)"/>
</clipPath>
</defs>
</svg>
