<svg width="20" height="16" viewBox="0 0 20 16" fill="none" xmlns="http://www.w3.org/2000/svg">
<path d="M5.5 5L10 8.5L14.5 5" stroke="#828282" stroke-linecap="round" stroke-linejoin="round"/>
<path d="M1 13V3C1 2.46957 1.18964 1.96086 1.52721 1.58579C1.86477 1.21071 2.32261 1 2.8 1H17.2C17.6774 1 18.1352 1.21071 18.4728 1.58579C18.8104 1.96086 19 2.46957 19 3V13C19 13.5304 18.8104 14.0391 18.4728 14.4142C18.1352 14.7893 17.6774 15 17.2 15H2.8C2.32261 15 1.86477 14.7893 1.52721 14.4142C1.18964 14.0391 1 13.5304 1 13Z" stroke="#828282"/>
</svg>
