<svg width="31" height="36" viewBox="0 0 31 36" fill="none" xmlns="http://www.w3.org/2000/svg">
<path d="M21.9487 4.67213V30.8894C21.9487 33.823 23.9746 35.4576 26.1197 35.4576C28.1059 35.4576 30.2906 34.0673 30.2906 30.8894V4.87074C30.2906 2.18148 28.3045 0.50119 26.1197 0.50119C23.9349 0.50119 21.9487 2.35428 21.9487 4.67213Z" fill="#F9AB00"/>
<path d="M11.0248 17.9794V30.8894C11.0248 33.823 13.0507 35.4576 15.1957 35.4576C17.1819 35.4576 19.3667 34.0673 19.3667 30.8894V18.178C19.3667 15.4888 17.3805 13.8085 15.1957 13.8085C13.011 13.8085 11.0248 15.6616 11.0248 17.9794Z" fill="#E37400"/>
<path d="M4.27179 35.4576C6.57534 35.4576 8.44274 33.5902 8.44274 31.2867C8.44274 28.9831 6.57534 27.1158 4.27179 27.1158C1.96823 27.1158 0.10083 28.9831 0.10083 31.2867C0.10083 33.5902 1.96823 35.4576 4.27179 35.4576Z" fill="#E37400"/>
</svg>
