<svg width="65" height="64" viewBox="0 0 65 64" fill="none" xmlns="http://www.w3.org/2000/svg">
<rect x="0.333984" width="64" height="64" rx="12" fill="#E6F1F1"/>
<g clip-path="url(#clip0_177_18089)">
<path d="M32.3346 48.6666C23.1296 48.6666 15.668 41.205 15.668 32C15.668 22.795 23.1296 15.3333 32.3346 15.3333C41.5396 15.3333 49.0013 22.795 49.0013 32C49.0013 41.205 41.5396 48.6666 32.3346 48.6666ZM32.3346 45.3333C35.8709 45.3333 39.2622 43.9286 41.7627 41.4281C44.2632 38.9276 45.668 35.5362 45.668 32C45.668 28.4638 44.2632 25.0724 41.7627 22.5719C39.2622 20.0714 35.8709 18.6666 32.3346 18.6666C28.7984 18.6666 25.407 20.0714 22.9065 22.5719C20.4061 25.0724 19.0013 28.4638 19.0013 32C19.0013 35.5362 20.4061 38.9276 22.9065 41.4281C25.407 43.9286 28.7984 45.3333 32.3346 45.3333ZM30.668 33.32C29.7906 32.9371 29.0719 32.2638 28.6326 31.4133C28.1933 30.5628 28.0603 29.5869 28.2559 28.6499C28.4514 27.7128 28.9637 26.8717 29.7065 26.2679C30.4493 25.6641 31.3774 25.3345 32.3346 25.3345C33.2919 25.3345 34.2199 25.6641 34.9628 26.2679C35.7056 26.8717 36.2178 27.7128 36.4134 28.6499C36.609 29.5869 36.4759 30.5628 36.0367 31.4133C35.5974 32.2638 34.8786 32.9371 34.0013 33.32V38.6666H30.668V33.32Z" fill="#409093"/>
</g>
<defs>
<clipPath id="clip0_177_18089">
<rect width="40" height="40" fill="white" transform="translate(12.334 12)"/>
</clipPath>
</defs>
</svg>
