<svg width="45" height="45" viewBox="0 0 45 45" fill="none" xmlns="http://www.w3.org/2000/svg">
<path d="M44.5624 18.0934H42.75V18H22.5V27H35.2159C33.3607 32.2391 28.3759 36 22.5 36C15.0446 36 9 29.9554 9 22.5C9 15.0446 15.0446 9 22.5 9C25.9414 9 29.0722 10.2982 31.4561 12.4189L37.8202 6.05475C33.8017 2.30962 28.4265 0 22.5 0C10.0744 0 0 10.0744 0 22.5C0 34.9256 10.0744 45 22.5 45C34.9256 45 45 34.9256 45 22.5C45 20.9914 44.8447 19.5187 44.5624 18.0934Z" fill="#FFC107"/>
<path d="M2.59412 12.0274L9.98649 17.4487C11.9867 12.4965 16.831 9 22.4999 9C25.9412 9 29.0721 10.2982 31.456 12.4189L37.8201 6.05475C33.8016 2.30962 28.4264 0 22.4999 0C13.8576 0 6.36286 4.87912 2.59412 12.0274Z" fill="#FF3D00"/>
<path d="M22.5001 45C28.3118 45 33.5926 42.7759 37.5852 39.159L30.6215 33.2663C28.2866 35.0419 25.4335 36.0023 22.5001 36C16.6479 36 11.6787 32.2684 9.80673 27.0608L2.46948 32.7139C6.19323 40.0005 13.7555 45 22.5001 45Z" fill="#4CAF50"/>
<path d="M44.5624 18.0934H42.75V18H22.5V27H35.2159C34.3285 29.4935 32.73 31.6723 30.618 33.2674L30.6214 33.2651L37.5851 39.1579C37.0924 39.6056 45 33.75 45 22.5C45 20.9914 44.8447 19.5187 44.5624 18.0934Z" fill="#1976D2"/>
</svg>
