<svg width="20" height="21" viewBox="0 0 20 21" fill="none" xmlns="http://www.w3.org/2000/svg">
<path d="M0.233061 11.2606C-0.817767 6.9742 1.79022 2.17383 5.93617 0.762631C6.52964 0.560637 7.60055 0.46794 8.85854 0.509907C10.4731 0.563634 11.0915 0.695069 12.1672 1.21251C12.8948 1.56254 13.7182 2.07283 13.9966 2.34631C14.4213 2.76321 14.5725 2.79826 14.9321 2.56352C15.6685 2.08274 16.6395 2.21833 17.0406 2.85775C17.3422 3.33898 17.364 3.64751 17.1762 4.76194C17.0271 5.64671 17.0249 6.51095 17.1696 7.34245C17.4324 8.85349 17.1833 9.58237 16.3273 9.80673C15.2946 10.0777 14.6706 9.50028 14.2029 7.84028C13.4367 5.1205 11.0729 3.29909 8.37339 3.34798C4.47167 3.419 1.62541 8.2053 3.3573 11.7829C5.15494 15.4965 9.17999 16.4744 12.2881 13.9525C14.0284 12.5406 14.1965 12.5736 16.4078 14.7598C19.8859 18.198 20 18.3355 20 19.0819C20 19.969 19.4879 20.5 18.6321 20.5C18.0821 20.5 17.5972 20.1315 16.005 18.5031L14.0524 16.506L12.6689 17.2386C9.28522 19.0302 5.42278 18.505 2.70095 15.8827C1.55283 14.7768 0.706076 13.1908 0.233061 11.2606Z" fill="#409093"/>
</svg>
