<svg width="14" height="14" viewBox="0 0 14 14" fill="none" xmlns="http://www.w3.org/2000/svg">
<path d="M12.6213 13.7634C12.9367 14.0788 13.448 14.0789 13.7634 13.7636C14.0788 13.4483 14.0789 12.9371 13.7635 12.6218L8.14192 6.99998L13.7635 1.37822C14.0788 1.06288 14.0788 0.551669 13.7634 0.236406C13.4479 -0.0788573 12.9366 -0.0787929 12.6213 0.23655L7 5.85802L1.37871 0.236549C1.06337 -0.0787935 0.552053 -0.078858 0.236641 0.236405C-0.078771 0.551668 -0.0788357 1.06288 0.236497 1.37822L5.85808 6.99998L0.236457 12.6218C-0.0788753 12.9371 -0.0788109 13.4483 0.236601 13.7636C0.552014 14.0789 1.06333 14.0788 1.37867 13.7634L7 8.14194L12.6213 13.7634Z" fill="#828282"/>
</svg>
