<svg width="48" height="45" viewBox="0 0 48 45" fill="none" xmlns="http://www.w3.org/2000/svg">
<path d="M1.10491 32.6242L17.053 4.09747C19.0788 5.34359 29.2941 11.2503 30.9438 12.3737L14.9957 40.9019C13.2516 43.3094 -1.10477 36.2776 1.10491 32.6226V32.6242Z" fill="#FBBC04"/>
<path d="M46.9264 32.6236L30.9783 4.09867C28.7487 0.22192 23.947 -1.18692 20.0029 1.10279C16.0589 3.39249 14.8579 8.32479 17.0875 12.3747L33.0356 40.9031C35.2652 44.7781 40.0671 46.1867 44.0112 43.8972C47.7828 41.6073 49.156 36.5002 46.9264 32.6269V32.6236Z" fill="#4285F4"/>
<path d="M8.00558 44.9996C12.4269 44.9996 16.0112 41.3478 16.0112 36.8431C16.0112 32.3383 12.4269 28.6865 8.00558 28.6865C3.58422 28.6865 0 32.3383 0 36.8431C0 41.3478 3.58422 44.9996 8.00558 44.9996Z" fill="#34A853"/>
</svg>
