<svg width="142" height="28" viewBox="0 0 142 28" fill="none" xmlns="http://www.w3.org/2000/svg">
<path fill-rule="evenodd" clip-rule="evenodd" d="M66.1536 1.16286C65.8708 1.32329 65.5543 1.58012 65.4505 1.73361C65.3466 1.88709 65.26 3.54534 65.2576 5.41902C65.2538 8.73886 65.0754 9.41886 64.493 8.33085C64.3475 8.05885 63.5873 7.52281 62.8037 7.13923C61.628 6.56411 61.1586 6.46822 60.1202 6.59136C56.4561 7.02534 54.3906 9.80913 54.3695 14.3422C54.3556 17.3494 54.9902 19.1513 56.6497 20.817C57.7485 21.9202 58.2038 22.1886 59.3959 22.4362C60.1819 22.5995 61.1562 22.6558 61.5612 22.5617C62.5854 22.3236 64.3918 21.2592 64.5728 20.7872C64.7831 20.2394 65.2538 20.2959 65.2538 20.869C65.2538 22.0786 67.1419 22.62 68.0818 21.6801C68.5775 21.1844 68.596 20.8232 68.596 11.6419V2.1177L67.9648 1.4868C67.2684 0.790336 66.9205 0.728119 66.1536 1.16286ZM99.2532 2.95197C98.7647 3.44044 98.8709 4.57628 99.4548 5.1046C99.8625 5.47353 100.124 5.52469 100.649 5.33727C101.601 4.99816 101.925 4.38449 101.618 3.50446C101.416 2.92703 101.188 2.76866 100.47 2.70773C99.9767 2.66608 99.4293 2.77586 99.2532 2.95197ZM7.21625 5.33007C2.38497 6.90347 -0.654116 12.2556 0.570414 17.0347C1.12162 19.1868 2.10834 20.9551 3.44625 22.1881C6.61799 25.1118 11.1189 25.6974 15.0619 23.6998L16.6742 22.883L18.9494 25.1097C20.8049 26.9253 21.3699 27.3361 22.0109 27.3361C23.0081 27.3361 23.6048 26.7441 23.6048 25.755C23.6048 24.9228 23.4719 24.7696 19.4189 20.9361C16.842 18.4986 16.6461 18.4618 14.6182 20.036C10.9963 22.8478 6.30588 21.7575 4.2111 17.617C2.19292 13.6282 5.50967 8.29177 10.0563 8.21259C13.2021 8.15808 15.9566 10.1889 16.8495 13.2213C17.3945 15.0721 18.1216 15.7158 19.325 15.4137C20.3225 15.1636 20.6128 14.3509 20.3066 12.6662C20.138 11.7391 20.1405 10.7755 20.3143 9.78908C20.5331 8.54655 20.5077 8.20256 20.1562 7.66601C19.6888 6.95309 18.5574 6.80192 17.6992 7.33796C17.2801 7.59968 17.104 7.5606 16.6091 7.09578C16.2847 6.79087 15.3252 6.22192 14.4773 5.83166C13.2237 5.25474 12.5031 5.1082 10.6217 5.0483C9.15575 5.00151 7.90783 5.10486 7.21625 5.33007ZM50.002 6.97597C49.7709 7.23127 49.4318 8.1005 49.2485 8.90802L48.9153 10.3758L47.9183 9.18311C46.6023 7.60868 45.0831 6.93458 43.1714 7.07624C39.7677 7.3287 37.4212 10.5591 37.4192 14.9957C37.4169 19.6218 40.4917 23.3024 44.0254 22.9041C45.6397 22.7221 47.4304 21.5955 48.2477 20.2481C48.622 19.6306 48.9863 19.122 49.057 19.1179C49.1277 19.1138 49.4169 19.9458 49.6997 20.9667C50.2758 23.0466 50.9633 23.7024 52.2328 23.3836C53.4239 23.0849 53.5761 22.2763 52.9267 19.7013C52.1326 16.5521 51.9855 13.3701 52.4984 10.4323C53.0126 7.48553 53.0172 7.6439 52.3992 7.02585C51.7593 6.38595 50.5587 6.36075 50.002 6.97597ZM108.06 6.73636C105.542 7.40069 104.075 9.08439 104.075 11.31C104.075 13.5336 105.551 14.8587 109.174 15.8868C111.543 16.5586 112.27 16.9797 112.478 17.7993C112.993 19.8296 109.947 20.4962 107.515 18.8853C106.847 18.4428 106.049 18.0808 105.742 18.0808C105.057 18.0808 104.332 18.8362 104.332 19.5493C104.332 20.2468 106.064 21.7889 107.319 22.2095C108.628 22.6478 111.401 22.6532 112.657 22.2197C115.225 21.3325 116.635 18.7698 115.759 16.5807C115.139 15.0294 114.15 14.3409 111.265 13.4506C109.858 13.0164 108.39 12.3888 108.003 12.0556C107.386 11.525 107.331 11.3597 107.555 10.7216C108.095 9.18748 110.48 8.93116 112.177 10.2251C113.671 11.3648 115.387 11.0748 115.387 9.68213C115.387 7.79301 110.897 5.98771 108.06 6.73636ZM121.464 6.91479C119.739 7.46728 117.924 9.31577 117.3 11.1542C116.669 13.0138 116.651 16.2233 117.261 17.9803C118.289 20.9379 120.676 22.5241 124.128 22.5445C125.546 22.5529 126.362 22.4159 127.213 22.0272C129.549 20.96 130.45 19.2999 129.154 18.451C128.419 17.9695 127.81 18.1058 126.335 19.0817C125.038 19.9404 123.215 20.0018 122.17 19.2218C121.136 18.45 120.52 17.5283 120.456 16.6588L120.4 15.8955L125.358 15.8256L130.315 15.7559L130.564 15.1019C131.162 13.5282 130.58 10.6753 129.301 8.90931C127.876 6.94255 124.255 6.02088 121.464 6.91479ZM138.979 7.13871C137.799 7.75419 137.237 8.21464 136.582 9.10316L135.954 9.95387V9.27309C135.954 7.63696 134.959 6.76824 133.503 7.13383C132.385 7.41406 132.283 8.17222 132.447 14.9674C132.576 20.3445 132.659 21.3063 133.03 21.7161C133.544 22.2843 134.631 22.338 135.327 21.8297C135.779 21.4996 135.838 21.0387 135.954 16.926L136.083 12.3867L137.159 11.383C137.917 10.6768 138.561 10.3272 139.333 10.2038C141.275 9.8932 142.19 8.37713 141.096 7.28294C140.489 6.67569 139.938 6.63816 138.979 7.13871ZM70.5424 7.42974C69.9429 8.02954 70.0313 9.23556 70.7101 9.71066C71.1451 10.0156 71.9726 10.111 74.1808 10.111C75.9277 10.111 77.08 10.2122 77.08 10.3662C77.08 10.5064 75.5169 12.6179 73.6067 15.0582C71.6963 17.4982 70.0619 19.7637 69.9748 20.0923C69.756 20.916 70.2578 21.8976 71.052 22.1994C71.4163 22.338 73.8795 22.4514 76.5255 22.4514C80.4634 22.4514 81.4398 22.3789 81.9074 22.0511C82.5229 21.6202 82.653 20.6862 82.2129 19.8635C81.9699 19.4097 81.6444 19.3663 78.485 19.3663C75.7827 19.3663 75.0233 19.2915 75.0233 19.0256C75.0233 18.8382 76.3689 16.9584 78.0135 14.8479C81.9918 9.74306 82.3167 9.23839 82.1226 8.4648C81.7735 7.07367 81.5719 7.02585 76.0517 7.02585C71.7533 7.02585 70.8826 7.08961 70.5424 7.42974ZM83.5073 7.54003C83.2245 7.82284 82.9931 8.20796 82.9931 8.39615C82.9931 8.58409 84.0393 11.5054 85.318 14.8877C87.8578 21.6061 88.2263 22.1953 89.8848 22.193C91.6078 22.1907 91.9669 21.6246 94.5867 14.78C96.8679 8.81984 96.9635 8.49025 96.5995 7.83852C96.1136 6.96903 94.6201 6.7523 94.0119 7.46316C93.7941 7.71768 92.8493 10.1683 91.9122 12.9091C90.2619 17.7363 90.0403 18.2875 89.841 18.0595C89.7896 18.0006 88.9734 15.6981 88.0268 12.9431C87.0804 10.1881 86.1212 7.72951 85.8952 7.47987C85.3468 6.87391 84.1431 6.90425 83.5073 7.54003ZM99.1013 7.49607C98.7287 7.90768 98.6758 8.78153 98.6758 14.5088C98.6758 20.0144 98.7393 21.142 99.0761 21.6228C99.5854 22.3501 100.805 22.3789 101.504 21.6801C101.991 21.1929 102.018 20.8232 102.018 14.6674C102.018 9.20162 101.954 8.07787 101.618 7.59737C101.113 6.87699 99.7126 6.82043 99.1013 7.49607ZM125.514 9.72943C126.46 10.1783 127.213 11.3049 127.213 12.2716V12.939H123.871C120.631 12.939 120.529 12.9223 120.529 12.3908C120.529 12.0893 120.777 11.4401 121.082 10.948C121.997 9.46694 123.874 8.95096 125.514 9.72943ZM63.4541 10.3385C65.7713 11.9435 65.8469 17.0252 63.5804 18.8081C62.6466 19.5424 60.8184 19.5599 59.6471 18.8459C57.3806 17.4641 57.1562 12.431 59.2766 10.546C60.396 9.55101 62.1887 9.46206 63.4541 10.3385ZM45.7994 10.2045C48.2484 11.2278 49.2387 14.6471 47.9116 17.4977C47.1514 19.1305 46.0647 19.8781 44.4496 19.8794C43.4408 19.8805 43.1904 19.7527 42.226 18.7464C39.8194 16.2346 40.3426 11.8137 43.2143 10.392C44.4956 9.75771 44.6954 9.74331 45.7994 10.2045Z" fill="white"/>
</svg>
