<svg width="64" height="64" viewBox="0 0 64 64" fill="none" xmlns="http://www.w3.org/2000/svg">
<rect width="64" height="64" rx="12" fill="#E6F1F1"/>
<g clip-path="url(#clip0_177_18077)">
<path d="M25.6073 28.3606L21.3739 22.7265M37.1126 43.8511L34.3817 40.1483M23.9012 38.3027L20.2242 40.7472M41.4569 36.3834L37.2424 35.5913M42.1123 21.811L35.1444 28.9706M48.5177 19.1069C48.5177 21.191 46.8283 22.8804 44.7442 22.8804C42.6601 22.8804 40.9707 21.191 40.9707 19.1069C40.9707 17.0228 42.6601 15.3333 44.7442 15.3333C46.8283 15.3333 48.5177 17.0228 48.5177 19.1069ZM48.9393 37.0795C48.9393 39.1636 47.2498 40.853 45.1658 40.853C43.0817 40.853 41.3923 39.1636 41.3923 37.0795C41.3923 34.9954 43.0817 33.306 45.1658 33.306C47.2498 33.306 48.9393 34.9954 48.9393 37.0795ZM22.8811 19.7091C22.8811 21.7932 21.1916 23.4826 19.1075 23.4826C17.0235 23.4826 15.334 21.7932 15.334 19.7091C15.334 17.625 17.0235 15.9355 19.1075 15.9355C21.1916 15.9355 22.8811 17.625 22.8811 19.7091ZM41.3645 45.9984C41.3645 47.4721 40.1698 48.6667 38.6962 48.6667C37.2225 48.6667 36.0279 47.4721 36.0279 45.9984C36.0279 44.5247 37.2225 43.3301 38.6962 43.3301C40.1698 43.3301 41.3645 44.5247 41.3645 45.9984ZM20.6706 42.2247C20.6706 43.6983 19.4759 44.8929 18.0023 44.8929C16.5286 44.8929 15.334 43.6983 15.334 42.2247C15.334 40.751 16.5286 39.5564 18.0023 39.5564C19.4759 39.5564 20.6706 40.751 20.6706 42.2247ZM37.3678 34.2352C37.3678 38.2925 34.0783 41.5824 30.0207 41.5824C25.9588 41.5824 22.6728 38.2885 22.6728 34.2352C22.6728 30.178 25.9625 26.8874 30.0207 26.8874C34.0753 26.8874 37.3678 30.1764 37.3678 34.2352Z" stroke="#409093" stroke-width="2.4" stroke-miterlimit="10" stroke-linecap="round" stroke-linejoin="round"/>
</g>
<defs>
<clipPath id="clip0_177_18077">
<rect width="40" height="40" fill="white" transform="translate(12 12)"/>
</clipPath>
</defs>
</svg>
