<svg width="19" height="16" viewBox="0 0 19 16" fill="none" xmlns="http://www.w3.org/2000/svg">
<path d="M2.08375 10.884C1.36125 9.918 1 9.43413 1 8C1 6.565 1.36125 6.08288 2.08375 5.116C3.52619 3.1875 5.94529 1 9.49998 1C13.0547 1 15.4738 3.1875 16.9162 5.116C17.6387 6.08375 18 6.56587 18 8C18 9.435 17.6387 9.91712 16.9162 10.884C15.4738 12.8125 13.0547 15 9.49998 15C5.94529 15 3.52619 12.8125 2.08375 10.884Z" stroke="#828282"/>
<path d="M12.0497 8C12.0497 8.69619 11.781 9.36387 11.3028 9.85616C10.8246 10.3484 10.176 10.625 9.4997 10.625C8.8234 10.625 8.1748 10.3484 7.69658 9.85616C7.21837 9.36387 6.94971 8.69619 6.94971 8C6.94971 7.30381 7.21837 6.63613 7.69658 6.14384C8.1748 5.65156 8.8234 5.375 9.4997 5.375C10.176 5.375 10.8246 5.65156 11.3028 6.14384C11.781 6.63613 12.0497 7.30381 12.0497 8Z" stroke="#828282"/>
</svg>
